<svg id="Layer_1" data-name="Layer 1" xmlns="http://www.w3.org/2000/svg" viewBox="0 0 1000 291"><defs><style>.cls-1{fill:#5fbff9;}.cls-2{fill:#fff;}</style></defs><rect class="cls-1" width="1000" height="291"/><path class="cls-2" d="M93.28,162.8V66.35H63V48.74h82.6V66.35H115.34V162.8Z"/><path class="cls-2" d="M247,106.71c0,34.37-19.83,57.8-48.91,57.8-14.87,0-27.36-6-35.39-16.93-8.21-11.11-12.66-25.82-12.66-42.24C150.05,71.14,170.23,47,199,47,228.2,47,247,70.46,247,106.71ZM178.27,75.42c-3.94,7.52-6,18.47-6,30.61,0,27.19,9.24,41.89,26,41.89a24.13,24.13,0,0,0,21.37-13.16c3.42-6.84,5.13-16.25,5.13-27.71,0-28.73-8.72-43.43-26-43.43C189.55,63.62,182,67.89,178.27,75.42Z"/><path class="cls-2" d="M333.19,162.8,288.73,90c-.51-.85-1.54-3.08-3.08-6.15-.34-.86-1.71-3.42-3.07-6.16V162.8H266V48.74h22.74l39.85,67.2c.17.35,1.88,3.42,3.42,6.33,1.36,2.74,2.39,4.79,3.76,7.36V48.74H352V162.8Z"/><path class="cls-2" d="M377.14,48.74H421.6c12.65,0,18.81,1.37,25.14,5.81,7.35,5.13,11.8,13.86,11.8,23.77,0,13.17-7.36,22.06-20.7,25.31,6.67,1.37,9.75,2.57,13.51,5.47,7,5.13,10.78,13.17,10.78,22.75,0,8.72-3.42,17.1-9.24,22.57-6.15,5.82-14,8.38-26,8.38H377.14ZM421.6,96.62c10.09,0,16.59-6.5,16.59-16.42C438.19,71,431.52,65,421.26,65H396.63V96.62Zm1.54,49.08c11.11,0,18.12-6.33,18.12-16.42,0-9.74-7.18-16.41-17.95-16.41H396.63V145.7Z"/><path class="cls-2" d="M548.14,162.8l-17.79-46.86H501.46V162.8H480.93V48.74h49.42c13.69,0,22.41,2.56,29.76,8.89,6.67,5.82,10.26,14.2,10.26,24.63,0,14.7-6.33,24.11-20.52,30.26l20,50.28Zm-21-63.27c14,0,21.88-6.33,21.88-17.61,0-10.27-7.69-16.76-20.18-16.76H501.46V99.53Z"/><path class="cls-2" d="M590.2,162.8V48.74h20.52V162.8Z"/><path class="cls-2" d="M635.35,48.74h41.89c14.71,0,25.65,4.28,35.23,14.19,10.6,10.95,16.24,25.48,16.24,42.58,0,19.16-7,35.57-19.66,46C700,159,687.67,162.8,672.62,162.8H635.35ZM673.48,146c20,0,33-16.07,33-40.87,0-23.6-12.65-40.18-30.61-40.18H656.38V146Z"/><path class="cls-2" d="M834.39,162.8h-9.06L819,147.41c-7.35,11.8-16.76,17.1-30.78,17.1-15.22,0-26.85-5.81-34.71-17.44-7.53-11.12-11.63-26-11.63-41.56,0-15.73,4.44-30.26,12.48-41C762.91,52.84,775.22,47,790.61,47c13.85,0,24.29,4.62,32.67,14.53,5.3,6,7.52,11,9.74,20.36L815.07,85c-1.54-6.15-2.74-9.06-5.13-12.14a24.78,24.78,0,0,0-38.31.69c-5.64,7.35-8,16.75-8,30.95,0,28.56,9.23,43.09,27,43.09,10.09,0,18.13-5.3,22.24-14.53,1.88-4.11,2.22-6.16,2.22-12h-23.6V104.49h42.92Z"/><path class="cls-2" d="M857.64,162.8V48.74H931V65.67H878.17v31h42.4v16.59h-42.4v32h53.52V162.8Z"/><path class="cls-2" d="M87.8,229.16c.89,3,1.69,4.37,3.39,5.7,2.49,2,6.49,3.12,11.12,3.12,7.21,0,11.75-3.21,11.75-8.37,0-3.56-2.4-5.88-7.39-7.21l-11.39-2.94c-6-1.6-9.08-3.2-11.22-6.05a16.22,16.22,0,0,1-3.47-10.24c0-10.59,8.37-17.71,21-17.71,6.41,0,12.1,1.78,16.38,5.16a13.69,13.69,0,0,1,5,7.66l-10.15,2.49c-1.6-4.54-5.16-6.67-11.12-6.67-6.14,0-10.15,2.84-10.15,7.29,0,3.48,2.67,5.79,8.28,7.21L110,211.1c6.4,1.69,10.23,3.82,12.54,7.29a16.78,16.78,0,0,1,2.85,9.62c0,11.3-9.34,18.6-23.67,18.6-7.39,0-13.53-1.87-18.25-5.61-2.94-2.4-4.45-4.8-6-9.61Z"/><path class="cls-2" d="M134.53,245.72V186.35h24.3c5.69,0,8.9.8,12.46,2.94a17,17,0,0,1,8,14.86c0,10.6-8,18.07-19.23,18.07H145.21v23.5Zm23.32-32.67c6.32,0,10.23-3.38,10.23-8.81a9.42,9.42,0,0,0-2.67-6.58c-1.69-1.61-4.45-2.41-8.54-2.41H145.21v17.8Z"/><path class="cls-2" d="M187,245.72V186.35h10.68v59.37Z"/><path class="cls-2" d="M245.69,245.72l-9.26-24.39h-15v24.39H210.71V186.35h25.72c7.12,0,11.66,1.34,15.49,4.63,3.47,3,5.34,7.39,5.34,12.82,0,7.65-3.29,12.55-10.68,15.75L257,245.72Zm-10.95-32.93c7.3,0,11.4-3.3,11.4-9.17,0-5.34-4-8.72-10.51-8.72H221.39v17.89Z"/><path class="cls-2" d="M267.58,245.72V186.35h10.68v59.37Z"/><path class="cls-2" d="M300.6,245.72v-50.2H284.85v-9.17h43v9.17H312.08v50.2Z"/><path class="cls-2" d="M375.45,224.54c0,8.9-1.07,12.46-5,16.37-3.74,3.74-9.08,5.7-15.76,5.7s-12.28-2.05-15.84-5.79c-3.47-3.56-4.72-7.74-4.72-15.57v-38.9h11v38.19c0,4.62.8,7.74,2.58,9.61a11.88,11.88,0,0,0,8.37,3.11c3.65,0,7.12-1.42,8.81-3.65,1.33-1.78,2.14-5.07,2.14-9.07V186.35h8.45Z"/><path class="cls-2" d="M421.28,245.72l-4.71-14.15H393.78l-4.71,14.15H380l19.67-59.37h13.17l19.94,59.37ZM405.09,196.5,396.45,223h17.27Z"/><path class="cls-2" d="M439.88,245.72V186.35h11.31V236h25.19v9.7Z"/><path class="cls-2" d="M484.2,245.72V186.35h10.69v59.37Z"/><path class="cls-2" d="M512.06,229.16c.89,3,1.69,4.37,3.38,5.7,2.5,2,6.5,3.12,11.13,3.12,7.21,0,11.75-3.21,11.75-8.37,0-3.56-2.41-5.88-7.39-7.21l-11.39-2.94c-6-1.6-9.08-3.2-11.22-6.05a16.22,16.22,0,0,1-3.47-10.24c0-10.59,8.37-17.71,21-17.71,6.41,0,12.1,1.78,16.37,5.16a13.71,13.71,0,0,1,5,7.66l-10.15,2.49c-1.6-4.54-5.16-6.67-11.12-6.67-6.15,0-10.15,2.84-10.15,7.29,0,3.48,2.67,5.79,8.28,7.21l10.14,2.5c6.41,1.69,10.24,3.82,12.55,7.29a16.78,16.78,0,0,1,2.85,9.62c0,11.3-9.34,18.6-23.67,18.6-7.39,0-13.53-1.87-18.25-5.61-2.94-2.4-4.45-4.8-6-9.61Z"/><path class="cls-2" d="M568.4,245.72v-50.2H552.64v-9.17h43v9.17H579.88v50.2Z"/><path class="cls-2" d="M667.46,226.23c-1,6.4-2.32,9.61-5.79,13.44-4.27,4.71-9.52,6.94-16.64,6.94s-12.64-2.4-16.56-7.39c-4.72-5.87-7.21-13.88-7.21-23.23,0-18.51,9.44-30.53,24.12-30.53,12.11,0,19.85,7.39,22.08,21l-9.88,1.07c-1.16-4.9-2-6.95-3.65-9.26a10.51,10.51,0,0,0-8.46-4.18c-8.1,0-12.64,7.83-12.64,21.62s4.81,21.9,13,21.9c6.14,0,10.86-5.07,11.75-12.55Z"/><path class="cls-2" d="M675.91,245.72V186.35h38.18v8.81h-27.5v16.11h22.07v8.64H686.59v16.64h27.86v9.17Z"/><path class="cls-2" d="M758.68,245.72,735.54,207.8c-.27-.44-.8-1.6-1.6-3.2-.18-.45-.89-1.78-1.61-3.21v44.33H723.7V186.35h11.84l20.74,35c.09.18,1,1.78,1.78,3.29s1.24,2.5,2,3.83v-42.1h8.46v59.37Z"/><path class="cls-2" d="M790.81,245.72v-50.2H775.05v-9.17h43v9.17H802.29v50.2Z"/><path class="cls-2" d="M859.6,245.72l-9.25-24.39H835.3v24.39H824.62V186.35h25.73c7.12,0,11.65,1.34,15.48,4.63,3.47,3,5.34,7.39,5.34,12.82,0,7.65-3.29,12.55-10.68,15.75l10.42,26.17Zm-11-32.93c7.3,0,11.4-3.3,11.4-9.17,0-5.34-4-8.72-10.51-8.72H835.3v17.89Z"/><path class="cls-2" d="M881.49,245.72V186.35h38.19v8.81H892.17v16.11h22.08v8.64H892.17v16.64H920v9.17Z"/></svg>